<?xml version="1.0" encoding="utf-8"?>
<!-- Generator: Adobe Illustrator 13.0.0, SVG Export Plug-In . SVG Version: 6.00 Build 14948)  -->
<!DOCTYPE svg PUBLIC "-//W3C//DTD SVG 1.1//EN" "http://www.w3.org/Graphics/SVG/1.1/DTD/svg11.dtd">
<svg version="1.1" id="Layer_1" xmlns="http://www.w3.org/2000/svg" xmlns:xlink="http://www.w3.org/1999/xlink" x="0px" y="0px"
	 width="100px" height="100px" viewBox="0 0 100 100" enable-background="new 0 0 100 100" xml:space="preserve">
<g>
	<g>
		<path fill="#009EE3" d="M20.188,50.687c0,9.786,7.905,17.718,17.659,17.718c9.752,0,17.658-7.934,17.658-17.719
			c0-11.811-17.658-33.281-17.658-33.281S20.188,38.875,20.188,50.687z M32.367,62.529c-5.969-2.941-7.546-8.711-7.546-12.724
			c0-6.246,7.228-15.402,11.335-23.917c-0.451,4.471-6.014,17.457-6.014,25.959C30.142,54.654,31.453,60.215,32.367,62.529z
			 M56.857,73.592c0,4.42,3.57,8.004,7.978,8.004c4.405,0,7.978-3.584,7.978-8.004c0-5.336-7.978-15.035-7.978-15.035
			S56.857,68.256,56.857,73.592z M62.357,78.942c-2.694-1.329-3.407-3.937-3.407-5.748c0-2.821,3.266-6.957,5.12-10.804
			c-0.204,2.021-2.717,7.886-2.717,11.727C61.355,75.385,61.945,77.896,62.357,78.942z M70.834,26.557c0,0-7.977,9.699-7.977,15.035
			c0,4.42,3.57,8.003,7.977,8.003c4.404,0,7.979-3.583,7.979-8.003C78.813,36.256,70.834,26.557,70.834,26.557z M68.359,46.941
			c-2.696-1.329-3.409-3.935-3.409-5.747c0-2.822,3.266-6.958,5.12-10.804c-0.204,2.02-2.717,7.885-2.717,11.726
			C67.355,43.384,67.945,45.896,68.359,46.941z"/>
	</g>
</g>
</svg>
